<?xml version="1.0" encoding="utf-8"?>
<!-- Generator: Adobe Illustrator 16.0.4, SVG Export Plug-In . SVG Version: 6.00 Build 0)  -->
<!DOCTYPE svg PUBLIC "-//W3C//DTD SVG 1.1//EN" "http://www.w3.org/Graphics/SVG/1.1/DTD/svg11.dtd">
<svg version="1.1" id="icon" xmlns="http://www.w3.org/2000/svg" xmlns:xlink="http://www.w3.org/1999/xlink" x="0px" y="0px"
	 width="256px" height="256px" viewBox="0 0 256 256" style="enable-background:new 0 0 256 256;" xml:space="preserve">
<style type="text/css">
<![CDATA[
	.st0{fill:#FFFFFF;}
]]>
</style>
<g>
	<rect class="st0" width="256" height="256"/>
	<path d="M210.998,180.997c18.879-25.67,27.764-55.923,27.764-85.582c0-35.642-13.68-69.73-37.374-95.416C190.125,0,0,0,0,0
		s0,166.167-0.002,200.342c24.807,23.196,58.647,37.894,98.167,37.894c29.345,0,57.513-9.457,81.076-26.112L224.795,256
		l31.505-31.832L210.998,180.997z M97.322,193.236c-53.642,0-97.186-43.534-97.186-97.185C0.137,47.431,35.844,7,82.422,0
		c4.286,0,24.911,0,29.806,0c46.591,7,82.28,47.431,82.28,96.051C194.508,149.702,150.985,193.236,97.322,193.236z"/>
</g>
</svg>
