<?xml version="1.0" encoding="utf-8"?>
<!-- Generator: Adobe Illustrator 16.0.4, SVG Export Plug-In . SVG Version: 6.00 Build 0)  -->
<!DOCTYPE svg PUBLIC "-//W3C//DTD SVG 1.1//EN" "http://www.w3.org/Graphics/SVG/1.1/DTD/svg11.dtd">
<svg version="1.1" id="Layer_1" xmlns="http://www.w3.org/2000/svg" xmlns:xlink="http://www.w3.org/1999/xlink" x="0px" y="0px"
	 width="100px" height="97.533px" viewBox="0 0 100 97.533" enable-background="new 0 0 100 97.533" xml:space="preserve">
<path fill-rule="evenodd" clip-rule="evenodd" fill="#FFFFFF" d="M49.996,0C22.388,0,0,22.392,0,50.008
	c0,22.09,14.326,40.83,34.195,47.441c2.5,0.459,3.413-1.084,3.413-2.411c0-1.184-0.044-4.328-0.068-8.505
	c-13.907,3.024-16.841-6.7-16.841-6.7c-2.275-5.773-5.552-7.314-5.552-7.314c-4.541-3.104,0.342-3.038,0.342-3.038
	c5.019,0.353,7.66,5.148,7.66,5.148c4.459,7.645,11.701,5.438,14.551,4.158c0.454-3.231,1.747-5.438,3.174-6.688
	C29.771,70.839,18.1,66.551,18.1,47.391c0-5.458,1.948-9.922,5.146-13.417c-0.516-1.262-2.231-6.349,0.489-13.232
	c0,0,4.199-1.347,13.75,5.127c3.989-1.105,8.266-1.669,12.519-1.682c4.245,0.013,8.522,0.576,12.516,1.682
	c9.546-6.474,13.735-5.127,13.735-5.127c2.729,6.884,1.014,11.971,0.498,13.232c3.204,3.495,5.141,7.959,5.141,13.417
	c0,19.209-11.689,23.437-22.828,24.67c1.793,1.543,3.394,4.598,3.394,9.265c0,6.682-0.063,12.072-0.063,13.713
	c0,1.338,0.899,2.892,3.438,2.403C85.688,90.818,100,72.089,100,50.008C100,22.392,77.612,0,49.996,0z"/>
</svg>
